<svg width="33" height="24" viewBox="0 0 33 24" fill="none" xmlns="http://www.w3.org/2000/svg">
<path d="M16.5 2.27856L16.5 22.2786" stroke="black" stroke-width="2" stroke-linecap="round"/>
<path d="M4.38135 6.99173L27.6949 1.29286" stroke="black" stroke-linecap="round"/>
<path d="M27.5 4.77856L27.5 1.77856" stroke="black" stroke-linecap="round"/>
<path d="M4.5 10.2786L4.5 7.27856" stroke="black" stroke-linecap="round"/>
<path d="M10.5 22.7786C10.5 22.2263 10.9477 21.7786 11.5 21.7786H21.5C22.0523 21.7786 22.5 22.2263 22.5 22.7786V23.7786H10.5V22.7786Z" fill="black"/>
<path d="M12 21.7786C12 21.2263 12.4477 20.7786 13 20.7786H20C20.5523 20.7786 21 21.2263 21 21.7786V22.2786H12V21.7786Z" fill="black"/>
<path fill-rule="evenodd" clip-rule="evenodd" d="M1 10.5911C1 10.5082 1.03278 10.4287 1.09112 10.3701C1.14947 10.3115 1.2286 10.2786 1.31111 10.2786H8.15556C8.23807 10.2786 8.3172 10.3115 8.37554 10.3701C8.43389 10.4287 8.46667 10.5082 8.46667 10.5911C8.46667 10.6739 8.43389 10.7534 8.37554 10.812C8.3172 10.8706 8.23807 10.9036 8.15556 10.9036H7.53333V11.5286C7.53346 12.0592 7.38413 12.5791 7.1026 13.0281C6.82107 13.4771 6.41882 13.8369 5.94231 14.0661C5.76187 14.1529 5.66667 14.3017 5.66667 14.4348V14.8723C5.66667 15.0054 5.76249 15.1542 5.94231 15.2411C6.41882 15.4702 6.82107 15.83 7.1026 16.2791C7.38413 16.7281 7.53346 17.2479 7.53333 17.7786V18.4036H8.15556C8.23807 18.4036 8.3172 18.4365 8.37554 18.4951C8.43389 18.5537 8.46667 18.6332 8.46667 18.7161C8.46667 18.7989 8.43389 18.8784 8.37554 18.937C8.3172 18.9956 8.23807 19.0286 8.15556 19.0286H1.31111C1.2286 19.0286 1.14947 18.9956 1.09112 18.937C1.03278 18.8784 1 18.7989 1 18.7161C1 18.6332 1.03278 18.5537 1.09112 18.4951C1.14947 18.4365 1.2286 18.4036 1.31111 18.4036H1.93333V17.7786C1.93321 17.2479 2.08253 16.7281 2.36407 16.2791C2.6456 15.83 3.04785 15.4702 3.52436 15.2411C3.7048 15.1542 3.8 15.0054 3.8 14.8723V14.4348C3.8 14.3017 3.70418 14.1529 3.52436 14.0661C3.04785 13.8369 2.6456 13.4771 2.36407 13.0281C2.08253 12.5791 1.93321 12.0592 1.93333 11.5286V10.9036H1.31111C1.2286 10.9036 1.14947 10.8706 1.09112 10.812C1.03278 10.7534 1 10.6739 1 10.5911ZM2.55556 11.5286V10.9036H6.91111V11.5286C6.91122 11.9413 6.79507 12.3457 6.57608 12.695C6.35708 13.0442 6.04417 13.3241 5.67351 13.5023C5.34187 13.6623 5.04444 13.9967 5.04444 14.4342V14.8729C5.04444 15.3111 6.57608 17.1803 6.57608 17.1803H2.89059C2.89059 17.1803 4.42222 15.3104 4.42222 14.8729V14.4342C4.42222 13.9967 4.1248 13.6623 3.79316 13.5023C3.42249 13.3241 3.10959 13.0442 2.89059 12.695C2.67159 12.3457 2.55544 11.9413 2.55556 11.5286Z" fill="black" stroke="black" stroke-width="0.65"/>
<path d="M23.72 5.01279C23.72 4.92991 23.7527 4.85042 23.8111 4.79182C23.8694 4.73321 23.9486 4.70029 24.0311 4.70029H30.8755C30.958 4.70029 31.0372 4.73321 31.0955 4.79182C31.1539 4.85042 31.1866 4.92991 31.1866 5.01279C31.1866 5.09567 31.1539 5.17515 31.0955 5.23376C31.0372 5.29236 30.958 5.32529 30.8755 5.32529H30.2533V5.95029C30.2534 6.48093 30.1041 7.00079 29.8226 7.4498C29.541 7.89881 29.1388 8.25867 28.6623 8.48779C28.4818 8.57466 28.3866 8.72341 28.3866 8.85654V9.29404C28.3866 9.42716 28.4825 9.57591 28.6623 9.66279C29.1388 9.89191 29.541 10.2518 29.8226 10.7008C30.1041 11.1498 30.2534 11.6696 30.2533 12.2003V12.8253H30.8755C30.958 12.8253 31.0372 12.8582 31.0955 12.9168C31.1539 12.9754 31.1866 13.0549 31.1866 13.1378C31.1866 13.2207 31.1539 13.3002 31.0955 13.3588C31.0372 13.4174 30.958 13.4503 30.8755 13.4503H24.0311C23.9486 13.4503 23.8694 13.4174 23.8111 13.3588C23.7527 13.3002 23.72 13.2207 23.72 13.1378C23.72 13.0549 23.7527 12.9754 23.8111 12.9168C23.8694 12.8582 23.9486 12.8253 24.0311 12.8253H24.6533V12.2003C24.6532 11.6696 24.8025 11.1498 25.084 10.7008C25.3656 10.2518 25.7678 9.89191 26.2443 9.66279C26.4248 9.57591 26.52 9.42716 26.52 9.29404V8.85654C26.52 8.72341 26.4241 8.57466 26.2443 8.48779C25.7678 8.25867 25.3656 7.89881 25.084 7.4498C24.8025 7.00079 24.6532 6.48093 24.6533 5.95029V5.32529H24.0311C23.9486 5.32529 23.8694 5.29236 23.8111 5.23376C23.7527 5.17515 23.72 5.09567 23.72 5.01279ZM25.2755 5.32529V5.95029C25.2754 6.36305 25.3916 6.76742 25.6106 7.11668C25.8296 7.46594 26.1425 7.74584 26.5131 7.92404C26.8448 8.08404 27.1422 8.41841 27.1422 8.85591V9.29466C27.1422 9.73216 26.8448 10.0665 26.5131 10.2265C26.1425 10.4047 25.8296 10.6846 25.6106 11.0339C25.3916 11.3832 25.2754 11.7875 25.2755 12.2003V12.8253H29.6311V12.2003C29.6312 11.7875 29.515 11.3832 29.296 11.0339C29.077 10.6846 28.7641 10.4047 28.3935 10.2265C28.0618 10.0665 27.7644 9.73279 27.7644 9.29466V8.85591C27.7644 8.41841 28.0618 8.08404 28.3935 7.92404C28.7641 7.74584 29.077 7.46594 29.296 7.11668C29.515 6.76742 29.6312 6.36305 29.6311 5.95029V5.32529H25.2755Z" stroke="black" stroke-width="0.65"/>
</svg>
