<svg width="24" height="24" viewBox="0 0 24 24" fill="none" xmlns="http://www.w3.org/2000/svg">
<path d="M12 24C10.4241 24 8.86371 23.6896 7.4078 23.0866C5.95189 22.4835 4.62902 21.5996 3.51472 20.4853C2.40041 19.371 1.5165 18.0481 0.913445 16.5922C0.310389 15.1363 -2.75532e-07 13.5759 0 12L2.4 12C2.4 13.2607 2.64831 14.509 3.13076 15.6738C3.6132 16.8385 4.32033 17.8968 5.21177 18.7882C6.10322 19.6797 7.16151 20.3868 8.32624 20.8692C9.49096 21.3517 10.7393 21.6 12 21.6L12 24Z" fill="black"/>
<path d="M24 12C24 13.5759 23.6896 15.1363 23.0866 16.5922C22.4835 18.0481 21.5996 19.371 20.4853 20.4853C19.371 21.5996 18.0481 22.4835 16.5922 23.0866C15.1363 23.6896 13.5759 24 12 24L12 21.6C13.2607 21.6 14.509 21.3517 15.6738 20.8692C16.8385 20.3868 17.8968 19.6797 18.7882 18.7882C19.6797 17.8968 20.3868 16.8385 20.8692 15.6738C21.3517 14.509 21.6 13.2607 21.6 12L24 12Z" fill="black"/>
<path d="M12 0C13.5759 1.8792e-08 15.1363 0.310389 16.5922 0.913446C18.0481 1.5165 19.371 2.40042 20.4853 3.51472C21.5996 4.62902 22.4835 5.95189 23.0866 7.4078C23.6896 8.86371 24 10.4241 24 12L21.6 12C21.6 10.7393 21.3517 9.49097 20.8692 8.32624C20.3868 7.16151 19.6797 6.10322 18.7882 5.21178C17.8968 4.32033 16.8385 3.6132 15.6738 3.13076C14.509 2.64831 13.2607 2.4 12 2.4L12 0Z" fill="black"/>
<path fill-rule="evenodd" clip-rule="evenodd" d="M12.5556 7.38892C12.5556 7.11277 12.3317 6.88892 12.0556 6.88892C11.7795 6.88892 11.5556 7.11277 11.5556 7.38892L11.5556 11.1739L7.42878 15.1976C7.23106 15.3903 7.22706 15.7069 7.41983 15.9046C7.61261 16.1023 7.92916 16.1063 8.12688 15.9136L12.5713 11.5802L12.5556 11.5641L12.5556 7.38892Z" fill="black"/>
<path d="M8.99725 9.45517V8.6605H7.43992V8.02583L9.22659 5.7325H9.71192V8.0205H10.1813V8.6605H9.71192V9.45517H8.99725ZM8.15459 8.0205H9.07725V6.81517L8.15459 8.0205Z" fill="black"/>
<path d="M4.42483 8.77783C4.42483 8.61783 4.43728 8.47383 4.46217 8.34583C4.48706 8.21783 4.52972 8.09872 4.59017 7.9885C4.65417 7.87828 4.7395 7.77517 4.84617 7.67917C4.95639 7.57961 5.09506 7.48361 5.26217 7.39117C5.40795 7.31294 5.53595 7.24539 5.64617 7.1885C5.75639 7.12805 5.84883 7.07294 5.9235 7.02317C6.00172 6.97339 6.06039 6.92361 6.0995 6.87383C6.13861 6.8205 6.15817 6.76005 6.15817 6.6925C6.15817 6.62139 6.13861 6.55739 6.0995 6.5005C6.06039 6.44005 6.00528 6.39205 5.93417 6.3565C5.86306 6.32094 5.77417 6.30317 5.6675 6.30317C5.58217 6.30317 5.50217 6.31383 5.4275 6.33517C5.35639 6.3565 5.28883 6.38672 5.22483 6.42583C5.16439 6.46494 5.1075 6.50939 5.05417 6.55917C5.00083 6.60539 4.95283 6.65517 4.91017 6.7085L4.45683 6.18583C4.50661 6.13605 4.57239 6.08272 4.65417 6.02583C4.7395 5.96539 4.83906 5.91028 4.95283 5.8605C5.07017 5.80717 5.19817 5.7645 5.33683 5.7325C5.47906 5.69694 5.63017 5.67917 5.79017 5.67917C6.03195 5.67917 6.23817 5.71828 6.40883 5.7965C6.5795 5.87117 6.70928 5.97605 6.79817 6.11117C6.89061 6.24628 6.93683 6.4045 6.93683 6.58583C6.93683 6.71028 6.91372 6.8205 6.8675 6.9165C6.82128 7.0125 6.76261 7.09783 6.6915 7.1725C6.62039 7.24361 6.54217 7.30761 6.45683 7.3645C6.37506 7.42139 6.29506 7.47117 6.21683 7.51383C6.10661 7.57072 6.00706 7.62405 5.91817 7.67383C5.82928 7.72005 5.75106 7.76805 5.6835 7.81783C5.61595 7.86405 5.5555 7.91205 5.50217 7.96183C5.45239 8.01161 5.40795 8.0685 5.36883 8.1325H6.9955V8.77783H4.42483Z" fill="black"/>
<path d="M16.0245 12.8889H14.5312C13.6646 12.8889 13.5978 13.6494 14.0656 14.0634L16.49 16.2144C16.9579 16.6284 16.891 17.3889 16.0245 17.3889H14.5312C13.6646 17.3889 13.5978 16.6284 14.0656 16.2144L16.49 14.0634C16.9579 13.6494 16.891 12.8889 16.0245 12.8889Z" stroke="black" stroke-width="0.444444" stroke-linecap="round" stroke-linejoin="round"/>
</svg>
