<svg width="49" height="48" viewBox="0 0 49 48" fill="none" xmlns="http://www.w3.org/2000/svg">
<path d="M4.25717 35.0529C2.51291 31.8584 1.54946 28.2964 1.44559 24.6582C1.34172 21.0199 2.10039 17.4088 3.65957 14.1199C5.21874 10.8311 7.53415 7.95797 10.4165 5.73545C13.2988 3.51292 16.6662 2.00411 20.2434 1.33238L21.0947 5.8659C18.233 6.40329 15.5391 7.61034 13.2332 9.38836C10.9273 11.1664 9.07499 13.4649 7.82765 16.096C6.58031 18.727 5.97338 21.6159 6.05647 24.5265C6.13956 27.4371 6.91033 30.2867 8.30574 32.8423L4.25717 35.0529Z" fill="url(#paint0_linear_314_494)"/>
<path d="M44.1935 36.0043C42.2991 39.1122 39.6961 41.7275 36.5972 43.6366C33.4983 45.5457 29.9916 46.6942 26.3638 46.9883C22.736 47.2825 19.0901 46.7138 15.7242 45.3289C12.3583 43.944 9.36788 41.7822 6.99756 39.0201L10.498 36.0161C12.3943 38.2257 14.7866 39.9552 17.4794 41.0631C20.1721 42.1711 23.0888 42.626 25.9911 42.3907C28.8933 42.1554 31.6987 41.2365 34.1777 39.7093C36.6568 38.182 38.7393 36.0897 40.2548 33.6035L44.1935 36.0043Z" fill="url(#paint1_linear_314_494)"/>
<path d="M25.0493 0.942735C28.688 1.02942 32.2545 1.97604 35.4572 3.7052C38.6599 5.43436 41.4079 7.89697 43.4766 10.8917C45.5452 13.8864 46.8757 17.3281 47.3593 20.9356C47.8429 24.543 47.4659 28.2137 46.259 31.6475L41.9072 30.118C42.8727 27.3709 43.1743 24.4344 42.7874 21.5485C42.4006 18.6625 41.3362 15.9091 39.6813 13.5133C38.0264 11.1176 35.8279 9.14749 33.2658 7.76416C30.7036 6.38083 27.8504 5.62353 24.9394 5.55419L25.0493 0.942735Z" fill="url(#paint2_linear_314_494)"/>
<path d="M14.585 14.0676C14.221 14.4405 14.0288 14.9067 14.0288 15.3729L14.0082 21.8993V21.9925C14.0259 22.4587 14.1979 22.8316 14.5026 23.2046H14.5644L25.2155 33.9265C25.9446 34.6724 27.1249 34.6724 27.8531 33.9265L31.1499 30.57L34.4457 27.3068C35.1738 26.5609 35.1738 25.4422 34.4457 24.6963L23.7946 13.9744H23.7331C23.3984 13.6947 22.9611 13.5082 22.5378 13.5082H22.4558H15.8834C15.4062 13.5082 14.9491 13.6947 14.585 14.0676ZM15.986 15.4661C16.7142 14.7202 17.8948 14.7202 18.6231 15.4661C19.3513 16.212 19.3513 17.3308 18.6231 18.0767C17.8948 18.8226 16.7142 18.8226 15.986 18.0767C15.2578 17.3308 15.2578 16.212 15.986 15.4661Z" fill="url(#paint3_linear_314_494)"/>
<defs>
<linearGradient id="paint0_linear_314_494" x1="52.2377" y1="-5.50821" x2="-3.43443" y2="52.7869" gradientUnits="userSpaceOnUse">
<stop stop-color="#2F6A43"/>
<stop offset="1" stop-color="#65B17F"/>
</linearGradient>
<linearGradient id="paint1_linear_314_494" x1="52.2377" y1="-5.50821" x2="-3.43443" y2="52.7869" gradientUnits="userSpaceOnUse">
<stop stop-color="#2F6A43"/>
<stop offset="1" stop-color="#65B17F"/>
</linearGradient>
<linearGradient id="paint2_linear_314_494" x1="46.3361" y1="-0.983618" x2="0.893442" y2="43.2787" gradientUnits="userSpaceOnUse">
<stop stop-color="#2F6A43"/>
<stop offset="1" stop-color="#65B17F"/>
</linearGradient>
<linearGradient id="paint3_linear_314_494" x1="36.7947" y1="10.2808" x2="12.1156" y2="37.3944" gradientUnits="userSpaceOnUse">
<stop stop-color="#2F6A43"/>
<stop offset="1" stop-color="#65B17F"/>
</linearGradient>
</defs>
</svg>
