<svg width="24" height="33" viewBox="0 0 24 33" fill="none" xmlns="http://www.w3.org/2000/svg">
<path d="M15.0001 1.5545H3.00014C1.35015 1.5545 0.0151529 2.9045 0.0151529 4.55449L0.000152588 28.5544C0.000152588 30.2044 1.33515 31.5544 2.98514 31.5544H21.0001C22.65 31.5544 24 30.2044 24 28.5544V10.5545L15.0001 1.5545ZM4.19984 27.749V6.14911H13.1998V12.7491H19.1998V27.749H4.19984Z" fill="url(#paint0_linear_3_212)"/>
<path d="M3.60001 27.9543H6.59999C6.59999 27.1294 6.30599 26.4229 5.718 25.8349C5.131 25.2479 4.425 24.9544 3.60001 24.9544V27.9543ZM11.1 27.9543C11.1 25.8794 10.3685 24.1104 8.90548 22.6474C7.44349 21.1854 5.675 20.4544 3.60001 20.4544V22.6294C5.075 22.6294 6.33149 23.1484 7.36949 24.1864C8.40648 25.2234 8.92498 26.4794 8.92498 27.9543H11.1ZM15.5999 27.9543C15.5999 26.3044 15.2875 24.7479 14.6625 23.2849C14.0375 21.8229 13.1815 20.5479 12.0945 19.4599C11.0065 18.3729 9.73148 17.5169 8.26948 16.8919C6.80649 16.2669 5.25 15.9544 3.60001 15.9544V18.1294C6.32499 18.1294 8.64398 19.0854 10.557 20.9974C12.469 22.9104 13.425 25.2294 13.425 27.9543H15.5999Z" fill="url(#paint1_linear_3_212)"/>
<defs>
<linearGradient id="paint0_linear_3_212" x1="0.000152588" y1="16.5544" x2="24" y2="16.5544" gradientUnits="userSpaceOnUse">
<stop stop-color="#7474BF"/>
<stop offset="1" stop-color="#348AC7"/>
</linearGradient>
<linearGradient id="paint1_linear_3_212" x1="3.60001" y1="21.9544" x2="15.5999" y2="21.9544" gradientUnits="userSpaceOnUse">
<stop stop-color="#7474BF"/>
<stop offset="1" stop-color="#348AC7"/>
</linearGradient>
</defs>
</svg>
