<svg width="32" height="32" viewBox="0 0 32 32" fill="none" xmlns="http://www.w3.org/2000/svg">
<path d="M18.5928 3.4855C18.3647 3.25622 18.0545 3.12732 17.7311 3.12732H9.29093C8.06093 3.12732 7.06575 4.13859 7.06575 5.37459L7.05457 23.3528C7.05457 24.5888 8.04975 25.6 9.27975 25.6H22.7091C23.9391 25.6 24.9455 24.5888 24.9455 23.3528V10.371C24.9455 10.0496 24.8182 9.74124 24.5915 9.51342L18.5928 3.4855ZM10.5067 23.3528C9.83523 23.3528 9.29093 22.8085 9.29093 22.137V6.59033C9.29093 5.9189 9.83523 5.37459 10.5067 5.37459H15.9025C16.5739 5.37459 17.1182 5.9189 17.1182 6.59033V9.77703C17.1182 10.4485 17.6625 10.9928 18.3339 10.9928H21.4934C22.1648 10.9928 22.7091 11.5371 22.7091 12.2085V22.137C22.7091 22.8085 22.1648 23.3528 21.4934 23.3528H10.5067Z" fill="#0F66FC"/>
<path d="M28 18.6183V25.4546C28 26.3612 27.719 27.2306 27.219 27.8717C26.7189 28.5127 26.0406 28.8728 25.3333 28.8728H6.66667C5.95942 28.8728 5.28115 28.5127 4.78105 27.8717C4.28095 27.2306 4 26.3612 4 25.4546V18.6183" stroke="#0F66FC" stroke-width="2.43148" stroke-linecap="round" stroke-linejoin="round"/>
<path d="M16.0174 14.0004C15.9148 13.9962 15.8109 14.029 15.7279 14.0987L14.021 15.5337C13.8457 15.6811 13.8254 15.9399 13.9756 16.1118C14.1259 16.2837 14.3898 16.3037 14.5651 16.1563L15.6168 15.2721V18.715C15.6168 18.9414 15.804 19.125 16.0348 19.125C16.2657 19.125 16.4529 18.9414 16.4529 18.715V15.3307L17.4349 16.1563C17.6102 16.3037 17.8741 16.2837 18.0244 16.1118C18.1746 15.9399 18.1543 15.6811 17.979 15.5337L16.3954 14.2024C16.3227 14.0813 16.1885 14 16.0348 14C16.029 14 16.0232 14.0001 16.0174 14.0004Z" fill="#0F66FC"/>
</svg>
