<svg width="25" height="24" viewBox="0 0 25 24" fill="none" xmlns="http://www.w3.org/2000/svg">
<g clip-path="url(#clip0_3_22)">
<path d="M3.85674 17.5909L3.28784 18.1598L6.67349 21.5454L7.24239 20.9765L3.85674 17.5909Z" fill="black"/>
<path d="M19.7878 5.43111L6.12805 19.0909L7.62806 20.5909L21.2879 6.93112L19.7878 5.43111Z" fill="black"/>
<path d="M17.9022 3.54545L4.24243 17.2052L5.74244 18.7053L19.4022 5.04545L17.9022 3.54545Z" fill="black"/>
<path d="M23.3139 4.9051C23.5366 4.68289 23.7134 4.41895 23.834 4.12839C23.9547 3.83782 24.0168 3.52632 24.017 3.21171C24.0172 2.89709 23.9554 2.58552 23.835 2.29482C23.7147 2.00411 23.5383 1.73998 23.3158 1.51751C23.0934 1.29504 22.8292 1.1186 22.5385 0.998288C22.2478 0.877972 21.9362 0.816136 21.6216 0.816315C21.307 0.816494 20.9955 0.878686 20.7049 0.999334C20.4144 1.11998 20.1504 1.29672 19.9282 1.51944L19.2424 2.20524L22.6281 5.5909L23.3139 4.9051Z" fill="black"/>
<path d="M18.8567 2.59089L18.2878 3.15979L21.6735 6.54544L22.2424 5.97654L18.8567 2.59089Z" fill="black"/>
<path d="M1.66392 22.8277C1.64906 22.8753 1.64749 22.9259 1.65938 22.9743C1.67127 23.0226 1.69617 23.0668 1.73137 23.102C1.76657 23.1372 1.81074 23.1621 1.85908 23.174C1.90743 23.1859 1.95811 23.1843 2.00562 23.1694L6.21179 21.8549L2.97836 18.6216L1.66392 22.8277Z" fill="black"/>
<path d="M3.50411 6.21626C3.55555 6.16658 3.62444 6.13909 3.69595 6.13971C3.76746 6.14034 3.83586 6.16902 3.88643 6.21958C3.93699 6.27015 3.96568 6.33855 3.9663 6.41006C3.96692 6.48157 3.93943 6.55046 3.88975 6.6019L2.60521 7.88644L3.58318 8.86442L4.86772 7.57987C4.91916 7.53019 4.98805 7.5027 5.05956 7.50332C5.13107 7.50394 5.19947 7.53263 5.25004 7.58319C5.3006 7.63376 5.32929 7.70216 5.32991 7.77367C5.33053 7.84518 5.30304 7.91407 5.25336 7.96551L3.96881 9.25005L4.94679 10.228L6.23133 8.94348C6.28277 8.8938 6.35166 8.86631 6.42317 8.86693C6.49468 8.86755 6.56308 8.89624 6.61365 8.9468C6.66421 8.99737 6.69289 9.06577 6.69352 9.13728C6.69414 9.20879 6.66665 9.27768 6.61697 9.32912L5.33242 10.6137L6.3104 11.5916L7.59494 10.3071C7.64638 10.2574 7.71527 10.2299 7.78678 10.2305C7.85829 10.2312 7.92669 10.2598 7.97726 10.3104C8.02782 10.361 8.0565 10.4294 8.05713 10.5009C8.05775 10.5724 8.03026 10.6413 7.98058 10.6927L6.69603 11.9773L7.69784 12.9791L12.3342 8.34272L5.63057 1.63635L1.18511 6.07908C1.13402 6.13057 1.10535 6.20017 1.10535 6.27272C1.10535 6.34526 1.13402 6.41486 1.18511 6.46635L2.21954 7.50081L3.50411 6.21626Z" fill="black"/>
<path d="M13.8124 6.86454L7.29968 0.351817C7.24819 0.300721 7.17859 0.272049 7.10605 0.272049C7.0335 0.272049 6.9639 0.300721 6.91241 0.351817L6.01514 1.25182L12.7215 7.95545L13.8124 6.86454Z" fill="black"/>
<path d="M24.4816 17.5336L17.9688 11.0209L16.8779 12.1118L23.5816 18.8182L24.4816 17.9209C24.5327 17.8694 24.5613 17.7998 24.5613 17.7273C24.5613 17.6547 24.5327 17.5851 24.4816 17.5336Z" fill="black"/>
<path d="M11.8542 17.1355L12.8559 18.1372L14.1405 16.8526C14.1919 16.803 14.2608 16.7755 14.3323 16.7761C14.4038 16.7767 14.4722 16.8054 14.5228 16.856C14.5734 16.9065 14.6021 16.9749 14.6027 17.0464C14.6033 17.118 14.5758 17.1868 14.5261 17.2383L13.2416 18.5228L14.2196 19.5008L15.5041 18.2163C15.5293 18.1902 15.5594 18.1694 15.5926 18.1551C15.6259 18.1408 15.6617 18.1333 15.6979 18.133C15.7341 18.1327 15.77 18.1396 15.8035 18.1533C15.8371 18.167 15.8675 18.1873 15.8931 18.2129C15.9187 18.2385 15.939 18.2689 15.9527 18.3024C15.9664 18.336 15.9733 18.3719 15.973 18.4081C15.9727 18.4443 15.9652 18.4801 15.9509 18.5134C15.9366 18.5466 15.9158 18.5767 15.8897 18.6019L14.6052 19.8864L15.5832 20.8644L16.8677 19.5799C16.8929 19.5538 16.923 19.533 16.9562 19.5187C16.9895 19.5045 17.0253 19.4969 17.0615 19.4966C17.0977 19.4963 17.1336 19.5032 17.1672 19.5169C17.2007 19.5306 17.2311 19.5509 17.2567 19.5765C17.2823 19.6021 17.3026 19.6325 17.3163 19.6661C17.33 19.6996 17.3369 19.7355 17.3366 19.7717C17.3363 19.8079 17.3288 19.8437 17.3145 19.877C17.3002 19.9102 17.2794 19.9403 17.2533 19.9655L15.9688 21.25L16.9468 22.228L18.2313 20.9435C18.2565 20.9174 18.2866 20.8966 18.3198 20.8824C18.3531 20.8681 18.3889 20.8605 18.4251 20.8602C18.4613 20.8599 18.4972 20.8668 18.5308 20.8805C18.5643 20.8942 18.5947 20.9145 18.6203 20.9401C18.6459 20.9657 18.6662 20.9962 18.6799 21.0297C18.6936 21.0632 18.7005 21.0991 18.7002 21.1353C18.6999 21.1715 18.6924 21.2073 18.6781 21.2406C18.6638 21.2739 18.643 21.304 18.617 21.3291L17.3324 22.6137L18.367 23.6482C18.4187 23.6989 18.4882 23.7273 18.5606 23.7273C18.633 23.7273 18.7025 23.6989 18.7542 23.6482L23.197 19.2027L16.4906 12.4991L11.8542 17.1355Z" fill="black"/>
</g>
<defs>
<clipPath id="clip0_3_22">
<rect width="24" height="24" fill="white" transform="translate(0.833252)"/>
</clipPath>
</defs>
</svg>
